# xmcd
# 
# Track frame offsets:
#     150
#     13295
#     36096
#     52497
#     72677
#     82062
#     101681
#     119300
#     135581
#     154133
#     168912
# 
# Disc length: 2506
# 
# Revision: 6
# Processed by: cddbd v1.5.2PL0 Copyright (c) Steve Scherf et al.
# Submitted via: fre:ac v1.0.17
# 
DISCID=a009c80b
DTITLE=Midlake - The Courage Of Others
DYEAR=2010
DGENRE=Indie
TTITLE0=Acts Of Man
TTITLE1=Winter Dies
TTITLE2=Small Mountain
TTITLE3=Core Of Nature
TTITLE4=Fortune
TTITLE5=Rulers, Ruling All Things
TTITLE6=Children Of The Grounds
TTITLE7=Bring Down
TTITLE8=The Horn
TTITLE9=The Courage Of Others
TTITLE10=In The Ground
EXTD=
EXTT0=
EXTT1=
EXTT2=
EXTT3=
EXTT4=
EXTT5=
EXTT6=
EXTT7=
EXTT8=
EXTT9=
EXTT10=
PLAYORDER=
